<svg width="120" height="120" viewBox="0 0 120 120" xmlns="http://www.w3.org/2000/svg">
  <defs>
    <linearGradient id="nodeGradient" x1="0%" y1="0%" x2="100%" y2="100%">
      <stop offset="0%" style="stop-color:#3b82f6;stop-opacity:1" />
      <stop offset="100%" style="stop-color:#1d4ed8;stop-opacity:1" />
    </linearGradient>
    <linearGradient id="linkGradient" x1="0%" y1="0%" x2="100%" y2="0%">
      <stop offset="0%" style="stop-color:#60a5fa;stop-opacity:0.8" />
      <stop offset="100%" style="stop-color:#3b82f6;stop-opacity:0.8" />
    </linearGradient>
  </defs>
  
  <!-- Background circle -->
  <circle cx="60" cy="60" r="55" fill="none" stroke="#e5e7eb" stroke-width="2" opacity="0.3"/>
  
  <!-- Main nodes -->
  <circle cx="30" cy="40" r="8" fill="url(#nodeGradient)"/>
  <circle cx="90" cy="40" r="8" fill="url(#nodeGradient)"/>
  <circle cx="60" cy="80" r="8" fill="url(#nodeGradient)"/>
  <circle cx="60" cy="30" r="6" fill="url(#nodeGradient)"/>
  <circle cx="30" cy="80" r="6" fill="url(#nodeGradient)"/>
  <circle cx="90" cy="80" r="6" fill="url(#nodeGradient)"/>
  
  <!-- Connecting lines -->
  <line x1="30" y1="40" x2="90" y2="40" stroke="url(#linkGradient)" stroke-width="3" opacity="0.7"/>
  <line x1="30" y1="40" x2="60" y2="80" stroke="url(#linkGradient)" stroke-width="3" opacity="0.7"/>
  <line x1="90" y1="40" x2="60" y2="80" stroke="url(#linkGradient)" stroke-width="3" opacity="0.7"/>
  <line x1="60" y1="30" x2="30" y2="40" stroke="url(#linkGradient)" stroke-width="2" opacity="0.6"/>
  <line x1="60" y1="30" x2="90" y2="40" stroke="url(#linkGradient)" stroke-width="2" opacity="0.6"/>
  <line x1="30" y1="80" x2="60" y2="80" stroke="url(#linkGradient)" stroke-width="2" opacity="0.6"/>
  <line x1="60" y1="80" x2="90" y2="80" stroke="url(#linkGradient)" stroke-width="2" opacity="0.6"/>
  
  <!-- Central connection hub -->
  <circle cx="60" cy="55" r="4" fill="#1d4ed8" opacity="0.9"/>
  <line x1="60" y1="30" x2="60" y2="55" stroke="url(#linkGradient)" stroke-width="2" opacity="0.8"/>
  <line x1="60" y1="55" x2="60" y2="80" stroke="url(#linkGradient)" stroke-width="2" opacity="0.8"/>
</svg>
